<svg xmlns="http://www.w3.org/2000/svg" viewBox="0 0 920 1000"><g transform="translate(0,880) scale(1,-1)"><path d="M748 325 854 326 900 274 875 12 836 -29 635 -67 618 26 784 57 801 232 549 228 515 259 414 156 426 78 553 14 510 -69 363 6 338 41 333 73 299 38 240 95 243 33 210 -13 90 -52 60 37 146 66 141 168 108 148 58 228 136 276 131 380 86 369 64 461 127 476 121 596 79 562 20 636 210 788 269 714 248 697 333 709 359 533 434 552 456 459 373 439 397 274 460 338 499 299 484 563 578 568 593 323 713 324 683 401 779 439 794 618 569 608 519 659 528 756 621 748 618 704 844 716 893 664 871 402 841 362ZM409 562 354 659 435 707 491 608ZM214 633 220 499 267 511 240 691 164 630ZM704 411 588 533 655 598 773 476ZM261 354 300 291 281 416 225 403 228 333ZM239 112 315 190 303 269 233 226ZM535 56 526 149 765 171 774 77Z" transform="translate(0,0)" fill="#E8850C"/></g></svg>